<?xml version="1.0" encoding="utf-8"?>
<!-- Generator: Adobe Illustrator 16.0.0, SVG Export Plug-In . SVG Version: 6.00 Build 0)  -->
<!DOCTYPE svg PUBLIC "-//W3C//DTD SVG 1.1//EN" "http://www.w3.org/Graphics/SVG/1.1/DTD/svg11.dtd">
<svg version="1.1" id="Calque_1" xmlns="http://www.w3.org/2000/svg" xmlns:xlink="http://www.w3.org/1999/xlink" x="0px" y="0px"
	 width="15px" height="44px" viewBox="0 22 15 44" enable-background="new 0 22 15 44" xml:space="preserve">
<rect y="22" fill="none" width="15" height="44"/>
<path fill="#FFFFFF" d="M13.993,49.718l-3.5-3.5c1.898-2.325,1.553-5.75-0.773-7.648c-2.325-1.899-5.75-1.553-7.648,0.772
	c-1.899,2.326-1.553,5.75,0.772,7.648c1.999,1.633,4.87,1.635,6.871,0.005l3.5,3.5c0.215,0.215,0.563,0.215,0.778,0
	S14.208,49.932,13.993,49.718L13.993,49.718L13.993,49.718z M1.972,42.793c0-2.385,1.935-4.318,4.32-4.318s4.319,1.935,4.319,4.32
	c-0.001,2.385-1.935,4.318-4.32,4.318C3.906,47.111,1.973,45.178,1.972,42.793z"/>
<rect y="22" fill="none" width="15" height="44"/>
</svg>
